<svg width="30" height="32" viewBox="0 0 30 32" fill="none" xmlns="http://www.w3.org/2000/svg">
<g filter="url(#filter0_d)">
<path d="M23.25 3H18.6667C18.6667 1.34531 17.0224 0 15 0C12.9776 0 11.3333 1.34531 11.3333 3H6.75C5.23177 3 4 4.00781 4 5.25V21.75C4 22.9922 5.23177 24 6.75 24H23.25C24.7682 24 26 22.9922 26 21.75V5.25C26 4.00781 24.7682 3 23.25 3ZM9.5 19.875C8.73802 19.875 8.125 19.3734 8.125 18.75C8.125 18.1266 8.73802 17.625 9.5 17.625C10.262 17.625 10.875 18.1266 10.875 18.75C10.875 19.3734 10.262 19.875 9.5 19.875ZM9.5 15.375C8.73802 15.375 8.125 14.8734 8.125 14.25C8.125 13.6266 8.73802 13.125 9.5 13.125C10.262 13.125 10.875 13.6266 10.875 14.25C10.875 14.8734 10.262 15.375 9.5 15.375ZM9.5 10.875C8.73802 10.875 8.125 10.3734 8.125 9.75C8.125 9.12656 8.73802 8.625 9.5 8.625C10.262 8.625 10.875 9.12656 10.875 9.75C10.875 10.3734 10.262 10.875 9.5 10.875ZM15 1.875C15.762 1.875 16.375 2.37656 16.375 3C16.375 3.62344 15.762 4.125 15 4.125C14.238 4.125 13.625 3.62344 13.625 3C13.625 2.37656 14.238 1.875 15 1.875ZM22.3333 19.125C22.3333 19.3312 22.1271 19.5 21.875 19.5H13.625C13.3729 19.5 13.1667 19.3312 13.1667 19.125V18.375C13.1667 18.1688 13.3729 18 13.625 18H21.875C22.1271 18 22.3333 18.1688 22.3333 18.375V19.125ZM22.3333 14.625C22.3333 14.8313 22.1271 15 21.875 15H13.625C13.3729 15 13.1667 14.8313 13.1667 14.625V13.875C13.1667 13.6687 13.3729 13.5 13.625 13.5H21.875C22.1271 13.5 22.3333 13.6687 22.3333 13.875V14.625ZM22.3333 10.125C22.3333 10.3313 22.1271 10.5 21.875 10.5H13.625C13.3729 10.5 13.1667 10.3313 13.1667 10.125V9.375C13.1667 9.16875 13.3729 9 13.625 9H21.875C22.1271 9 22.3333 9.16875 22.3333 9.375V10.125Z" fill="black"/>
</g>
<defs>
<filter id="filter0_d" x="0" y="0" width="30" height="32" filterUnits="userSpaceOnUse" color-interpolation-filters="sRGB">
<feFlood flood-opacity="0" result="BackgroundImageFix"/>
<feColorMatrix in="SourceAlpha" type="matrix" values="0 0 0 0 0 0 0 0 0 0 0 0 0 0 0 0 0 0 127 0"/>
<feOffset dy="4"/>
<feGaussianBlur stdDeviation="2"/>
<feColorMatrix type="matrix" values="0 0 0 0 0 0 0 0 0 0 0 0 0 0 0 0 0 0 0.25 0"/>
<feBlend mode="normal" in2="BackgroundImageFix" result="effect1_dropShadow"/>
<feBlend mode="normal" in="SourceGraphic" in2="effect1_dropShadow" result="shape"/>
</filter>
</defs>
</svg>
