<svg width="21" height="24" viewBox="0 0 21 24" fill="none" xmlns="http://www.w3.org/2000/svg">
<path d="M20.4286 14.25C20.4286 19.6359 15.8567 24 10.2143 24C4.57187 24 0 19.6359 0 14.25C0 9.375 3.74688 5.33438 8.64286 4.61719V3H7.26786C6.94375 3 6.67857 2.74687 6.67857 2.4375V0.5625C6.67857 0.253125 6.94375 0 7.26786 0H13.1607C13.4848 0 13.75 0.253125 13.75 0.5625V2.4375C13.75 2.74687 13.4848 3 13.1607 3H11.7857V4.61719C13.6272 4.88906 15.3067 5.62969 16.6817 6.70781L18.0321 5.41875C18.2629 5.19844 18.6362 5.19844 18.867 5.41875L20.2567 6.74531C20.4875 6.96562 20.4875 7.32187 20.2567 7.54219L18.8129 8.92031L18.7835 8.94844C19.8246 10.4672 20.4286 12.2906 20.4286 14.25ZM11.7857 15.9375V8.83594C11.7857 8.52656 11.5205 8.27344 11.1964 8.27344H9.23214C8.90804 8.27344 8.64286 8.52656 8.64286 8.83594V15.9375C8.64286 16.2469 8.90804 16.5 9.23214 16.5H11.1964C11.5205 16.5 11.7857 16.2469 11.7857 15.9375Z" fill="black"/>
</svg>
