<svg width="22" height="21" viewBox="0 0 22 21" fill="none" xmlns="http://www.w3.org/2000/svg">
<path d="M11 4.25625C7.42991 4.25625 4.52768 7.02656 4.52277 10.4344C4.52277 11.6016 4.86652 12.7406 5.51473 13.7203L5.66696 13.9547L5.01384 16.2328L7.46429 15.6188L7.7 15.7547C8.69196 16.3172 9.83125 16.6172 10.9951 16.6172H11C14.5652 16.6172 17.546 13.8469 17.546 10.4391C17.546 8.78906 16.7996 7.2375 15.5768 6.07031C14.3491 4.89844 12.7286 4.25625 11 4.25625ZM14.8058 13.0875C14.6437 13.5234 13.8679 13.9172 13.4946 13.9688C12.8759 14.0578 12.3946 14.0109 11.1621 13.5047C9.2125 12.6984 7.93571 10.8234 7.8375 10.7016C7.73929 10.5797 7.04196 9.69375 7.04196 8.77969C7.04196 7.86563 7.54286 7.41562 7.72455 7.22812C7.90134 7.04062 8.1125 6.99375 8.24509 6.99375C8.37277 6.99375 8.50536 6.99375 8.6183 6.99844C8.73616 7.00313 8.89821 6.95625 9.05536 7.31719C9.21741 7.6875 9.60536 8.60156 9.65446 8.69531C9.70357 8.78906 9.73795 8.89687 9.6692 9.01875C9.29598 9.73125 8.89821 9.70312 9.09955 10.0312C9.85089 11.2641 10.6022 11.6906 11.7464 12.2391C11.9429 12.3328 12.0558 12.3188 12.1687 12.1922C12.2817 12.0703 12.6549 11.6484 12.7826 11.4656C12.9103 11.2781 13.0429 11.3109 13.2196 11.3719C13.3964 11.4328 14.354 11.8828 14.5504 11.9766C14.7469 12.0703 14.8746 12.1172 14.9237 12.1922C14.9679 12.2813 14.9679 12.6563 14.8058 13.0875V13.0875ZM19.6429 0H2.35714C1.0558 0 0 1.00781 0 2.25V18.75C0 19.9922 1.0558 21 2.35714 21H19.6429C20.9442 21 22 19.9922 22 18.75V2.25C22 1.00781 20.9442 0 19.6429 0ZM10.9951 17.8688C9.68884 17.8688 8.40714 17.5547 7.27277 16.9641L3.14286 18L4.24777 14.1469C3.56518 13.0219 3.2067 11.7422 3.2067 10.4297C3.21161 6.33281 6.70312 3 10.9951 3C13.0772 3 15.0317 3.77344 16.5049 5.17969C17.9732 6.58594 18.8571 8.45156 18.8571 10.4391C18.8571 14.5359 15.2871 17.8688 10.9951 17.8688Z" fill="#4AC558"/>
</svg>
